<svg xmlns="http://www.w3.org/2000/svg" viewBox="0 0 800 500">
  <defs>
    <linearGradient id="bg" x1="0%" y1="0%" x2="100%" y2="100%">
      <stop offset="0%" style="stop-color:#312e81;stop-opacity:1" />
      <stop offset="100%" style="stop-color:#6366f1;stop-opacity:1" />
    </linearGradient>
  </defs>
  <rect width="800" height="500" fill="url(#bg)"/>
  <g opacity="0.05" stroke="white" stroke-width="1">
    <line x1="0" y1="0" x2="0" y2="500"/><line x1="80" y1="0" x2="80" y2="500"/>
    <line x1="160" y1="0" x2="160" y2="500"/><line x1="240" y1="0" x2="240" y2="500"/>
    <line x1="320" y1="0" x2="320" y2="500"/><line x1="400" y1="0" x2="400" y2="500"/>
    <line x1="480" y1="0" x2="480" y2="500"/><line x1="560" y1="0" x2="560" y2="500"/>
    <line x1="640" y1="0" x2="640" y2="500"/><line x1="720" y1="0" x2="720" y2="500"/>
  </g>
  <!-- Shopping cart icon -->
  <g transform="translate(400,180)" opacity="0.12">
    <path d="M-60,-30 L-40,-30 L-20,20 L50,20 L70,-10 L-10,-10" fill="none" stroke="white" stroke-width="4" stroke-linecap="round" stroke-linejoin="round"/>
    <circle cx="-10" cy="35" r="8" fill="none" stroke="white" stroke-width="3"/>
    <circle cx="55" cy="35" r="8" fill="none" stroke="white" stroke-width="3"/>
  </g>
  <!-- Dashboard -->
  <rect x="150" y="100" width="500" height="300" rx="12" fill="#0a0a0a" opacity="0.7"/>
  <rect x="150" y="100" width="500" height="40" rx="12" fill="#1e1b4b"/>
  <circle cx="175" cy="120" r="6" fill="#ef4444"/>
  <circle cx="195" cy="120" r="6" fill="#eab308"/>
  <circle cx="215" cy="120" r="6" fill="#22c55e"/>
  <text x="400" y="125" font-family="sans-serif" font-size="12" fill="#6b7280" text-anchor="middle">E-Commerce Admin Dashboard</text>
  <!-- Revenue cards -->
  <rect x="170" y="155" width="105" height="55" rx="8" fill="#312e81" opacity="0.5"/>
  <text x="222" y="175" font-family="sans-serif" font-size="9" fill="#818cf8" text-anchor="middle">Revenue</text>
  <text x="222" y="195" font-family="sans-serif" font-size="16" fill="white" text-anchor="middle" font-weight="bold">$24.5K</text>
  <rect x="290" y="155" width="105" height="55" rx="8" fill="#312e81" opacity="0.5"/>
  <text x="342" y="175" font-family="sans-serif" font-size="9" fill="#818cf8" text-anchor="middle">Orders</text>
  <text x="342" y="195" font-family="sans-serif" font-size="16" fill="white" text-anchor="middle" font-weight="bold">1,432</text>
  <rect x="410" y="155" width="105" height="55" rx="8" fill="#312e81" opacity="0.5"/>
  <text x="462" y="175" font-family="sans-serif" font-size="9" fill="#818cf8" text-anchor="middle">Customers</text>
  <text x="462" y="195" font-family="sans-serif" font-size="16" fill="white" text-anchor="middle" font-weight="bold">892</text>
  <rect x="530" y="155" width="105" height="55" rx="8" fill="#312e81" opacity="0.5"/>
  <text x="582" y="175" font-family="sans-serif" font-size="9" fill="#818cf8" text-anchor="middle">Products</text>
  <text x="582" y="195" font-family="sans-serif" font-size="16" fill="white" text-anchor="middle" font-weight="bold">347</text>
  <!-- Product cards -->
  <rect x="170" y="225" width="100" height="120" rx="8" fill="#1e1b4b" opacity="0.8"/>
  <rect x="178" y="233" width="84" height="50" rx="4" fill="#4338ca" opacity="0.3"/>
  <text x="220" y="262" font-family="sans-serif" font-size="18" fill="white" text-anchor="middle">👟</text>
  <text x="220" y="298" font-family="sans-serif" font-size="10" fill="white" text-anchor="middle">Sneakers</text>
  <text x="220" y="315" font-family="sans-serif" font-size="11" fill="#818cf8" text-anchor="middle" font-weight="bold">$89.99</text>
  <rect x="178" y="325" width="84" height="12" rx="6" fill="#4338ca" opacity="0.3"/>
  <text x="220" y="334" font-family="sans-serif" font-size="7" fill="#a5b4fc" text-anchor="middle">Add to Cart</text>
  <rect x="285" y="225" width="100" height="120" rx="8" fill="#1e1b4b" opacity="0.8"/>
  <rect x="293" y="233" width="84" height="50" rx="4" fill="#4338ca" opacity="0.3"/>
  <text x="335" y="262" font-family="sans-serif" font-size="18" fill="white" text-anchor="middle">⌚</text>
  <text x="335" y="298" font-family="sans-serif" font-size="10" fill="white" text-anchor="middle">Watch</text>
  <text x="335" y="315" font-family="sans-serif" font-size="11" fill="#818cf8" text-anchor="middle" font-weight="bold">$249.99</text>
  <rect x="293" y="325" width="84" height="12" rx="6" fill="#4338ca" opacity="0.3"/>
  <text x="335" y="334" font-family="sans-serif" font-size="7" fill="#a5b4fc" text-anchor="middle">Add to Cart</text>
  <rect x="400" y="225" width="100" height="120" rx="8" fill="#1e1b4b" opacity="0.8"/>
  <rect x="408" y="233" width="84" height="50" rx="4" fill="#4338ca" opacity="0.3"/>
  <text x="450" y="262" font-family="sans-serif" font-size="18" fill="white" text-anchor="middle">🎧</text>
  <text x="450" y="298" font-family="sans-serif" font-size="10" fill="white" text-anchor="middle">Headphones</text>
  <text x="450" y="315" font-family="sans-serif" font-size="11" fill="#818cf8" text-anchor="middle" font-weight="bold">$129.99</text>
  <rect x="408" y="325" width="84" height="12" rx="6" fill="#4338ca" opacity="0.3"/>
  <text x="450" y="334" font-family="sans-serif" font-size="7" fill="#a5b4fc" text-anchor="middle">Add to Cart</text>
  <rect x="515" y="225" width="100" height="120" rx="8" fill="#1e1b4b" opacity="0.8"/>
  <rect x="523" y="233" width="84" height="50" rx="4" fill="#4338ca" opacity="0.3"/>
  <text x="565" y="262" font-family="sans-serif" font-size="18" fill="white" text-anchor="middle">📱</text>
  <text x="565" y="298" font-family="sans-serif" font-size="10" fill="white" text-anchor="middle">Phone Case</text>
  <text x="565" y="315" font-family="sans-serif" font-size="11" fill="#818cf8" text-anchor="middle" font-weight="bold">$29.99</text>
  <rect x="523" y="325" width="84" height="12" rx="6" fill="#4338ca" opacity="0.3"/>
  <text x="565" y="334" font-family="sans-serif" font-size="7" fill="#a5b4fc" text-anchor="middle">Add to Cart</text>
  <!-- Title -->
  <text x="400" y="455" font-family="sans-serif" font-size="28" fill="white" text-anchor="middle" font-weight="bold">E-Commerce Platform</text>
  <text x="400" y="480" font-family="sans-serif" font-size="14" fill="#a5b4fc" text-anchor="middle">Full-Stack Online Store</text>
</svg>
